<svg xmlns="http://www.w3.org/2000/svg" width="640" height="360" viewBox="0 0 640 360" role="img" aria-label="packing label">
  <rect width="640" height="360" fill="#f8fafc"/>
  <rect x="94" y="58" width="452" height="244" rx="16" fill="#ffffff" stroke="#cbd5e1" stroke-width="4"/>
  <rect x="126" y="92" width="196" height="36" rx="6" fill="#dbeafe"/>
  <rect x="126" y="150" width="388" height="24" rx="4" fill="#e2e8f0"/>
  <rect x="126" y="190" width="320" height="24" rx="4" fill="#e2e8f0"/>
  <rect x="126" y="230" width="250" height="24" rx="4" fill="#e2e8f0"/>
  <rect x="400" y="82" width="92" height="92" rx="8" fill="#111827"/>
  <g fill="#fff">
    <rect x="414" y="96" width="12" height="12"/>
    <rect x="438" y="96" width="12" height="12"/>
    <rect x="462" y="96" width="12" height="12"/>
    <rect x="414" y="120" width="12" height="12"/>
    <rect x="450" y="120" width="12" height="12"/>
    <rect x="474" y="120" width="12" height="12"/>
    <rect x="426" y="144" width="12" height="12"/>
    <rect x="450" y="144" width="12" height="12"/>
    <rect x="474" y="144" width="12" height="12"/>
  </g>
  <circle cx="510" cy="250" r="34" fill="#dcfce7" stroke="#22c55e" stroke-width="4"/>
  <path d="M492 250l12 12 26-30" fill="none" stroke="#16a34a" stroke-width="7" stroke-linecap="round" stroke-linejoin="round"/>
</svg>
