<svg xmlns="http://www.w3.org/2000/svg" width="320" height="240" viewBox="0 0 320 240" role="img" aria-label="mattress foam sheet">
  <defs>
    <linearGradient id="bg" x1="0" x2="1" y1="0" y2="1">
      <stop offset="0" stop-color="#f8fafc"/>
      <stop offset="1" stop-color="#dcfce7"/>
    </linearGradient>
    <linearGradient id="top" x1="0" x2="1">
      <stop offset="0" stop-color="#f0fdf4"/>
      <stop offset="1" stop-color="#86efac"/>
    </linearGradient>
  </defs>
  <rect width="320" height="240" fill="url(#bg)"/>
  <path d="M56 78h198l34 34-198 34-34-34z" fill="url(#top)" stroke="#22c55e" stroke-width="3"/>
  <path d="M56 112v48l34 36v-50z" fill="#bbf7d0" stroke="#22c55e" stroke-width="3"/>
  <path d="M90 146l198-34v48L90 196z" fill="#dcfce7" stroke="#22c55e" stroke-width="3"/>
  <g stroke="#16a34a" stroke-linecap="round" stroke-width="4" opacity=".45">
    <path d="M86 104c20-16 36 16 56 0s36 16 56 0 36 16 56 0"/>
    <path d="M100 132c20-16 36 16 56 0s36 16 56 0"/>
  </g>
</svg>
